<?xml version="1.0" encoding="UTF-8" standalone="no"?>
<!-- Created with Inkscape (http://www.inkscape.org/) -->

<svg
   xmlns:dc="http://purl.org/dc/elements/1.1/"
   xmlns:cc="http://creativecommons.org/ns#"
   xmlns:rdf="http://www.w3.org/1999/02/22-rdf-syntax-ns#"
   xmlns:svg="http://www.w3.org/2000/svg"
   xmlns="http://www.w3.org/2000/svg"
   xmlns:sodipodi="http://sodipodi.sourceforge.net/DTD/sodipodi-0.dtd"
   xmlns:inkscape="http://www.inkscape.org/namespaces/inkscape"
   width="172.60001"
   height="49.377071"
   viewBox="0 0 45.667083 13.06435"
   version="1.1"
   id="svg446"
   inkscape:version="0.92.0 r15299"
   sodipodi:docname="vinci.svg">
  <defs
     id="defs440">
    <clipPath
       id="clipPath269"
       clipPathUnits="userSpaceOnUse">
      <path
         inkscape:connector-curvature="0"
         id="path267"
         d="m 212.255,506.474 h 128.7 v 36.283 h -128.7 z" />
    </clipPath>
  </defs>
  <sodipodi:namedview
     id="base"
     pagecolor="#ffffff"
     bordercolor="#666666"
     borderopacity="1.0"
     inkscape:pageopacity="0.0"
     inkscape:pageshadow="2"
     inkscape:zoom="4.6736598"
     inkscape:cx="85.799998"
     inkscape:cy="24.188533"
     inkscape:document-units="mm"
     inkscape:current-layer="layer1"
     showgrid="false"
     fit-margin-top="0"
     fit-margin-left="0"
     fit-margin-right="0"
     fit-margin-bottom="0"
     units="px"
     inkscape:window-width="1280"
     inkscape:window-height="744"
     inkscape:window-x="-4"
     inkscape:window-y="-4"
     inkscape:window-maximized="1" />
  <metadata
     id="metadata443">
    <rdf:RDF>
      <cc:Work
         rdf:about="">
        <dc:format>image/svg+xml</dc:format>
        <dc:type
           rdf:resource="http://purl.org/dc/dcmitype/StillImage" />
        <dc:title></dc:title>
      </cc:Work>
    </rdf:RDF>
  </metadata>
  <g
     inkscape:label="Layer 1"
     inkscape:groupmode="layer"
     id="layer1"
     transform="translate(-92.959465,-158.04387)">
    <g
       id="g263"
       transform="matrix(0.35277777,0,0,-0.35277777,18.212912,349.6487)">
      <g
         id="g265"
         clip-path="url(#clipPath269)">
        <path
           d="m 297.625,531.166 h -4.263 v -11.883 h 4.263 z m -61.346,-11.883 h 4.265 v 11.883 h -4.265 z m -13.431,4.966 c -0.957,0.885 -7.426,7.112 -7.426,7.112 l -3.167,-2.881 10.593,-9.516 10.584,9.511 -3.16,2.89 c 0,0 -6.468,-6.231 -7.424,-7.116 m 37.547,-4.966 h 4.144 v 11.883 H 260.4 v -7.388 c 0,0 -3.083,2.28 -7.62,4.63 -3.965,2.057 -7.457,2.734 -7.457,2.734 v -11.859 h 4.13 l -0.002,6.337 c 0.991,-0.401 2.061,-0.837 3.324,-1.496 4.535,-2.348 7.62,-4.841 7.62,-4.841 m 28.341,0.702 v 3.543 c 0,0 -4.128,-0.809 -9.785,-0.809 -2.748,0 -4.562,0.32 -5.541,0.42 -0.006,0.853 0,3.262 0,4.125 1.093,0.109 2.939,0.427 5.581,0.427 5.509,-0.024 9.745,-0.841 9.745,-0.841 v 3.569 c 0,0 -3.777,0.941 -9.745,0.941 -6.005,0 -9.742,-0.944 -9.742,-0.944 v -10.427 c 0,0 3.799,-0.94 9.742,-0.94 5.906,0 9.745,0.936 9.745,0.936"
           style="fill:#004489;fill-opacity:1;fill-rule:nonzero;stroke:none"
           id="path271"
           inkscape:connector-curvature="0" />
        <g
           id="g273"
           transform="translate(339.3116,529.9528)">
          <path
             d="m 0,0 c -1.014,1.029 -2.432,1.649 -4.006,1.649 -3.216,0 -5.781,-2.618 -5.781,-5.749 0,-0.57 0.247,-1.655 0.247,-2.115 0,-2.462 -1.993,-4.455 -4.455,-4.455 h -4.771 c -0.915,0 -1.658,-0.74 -1.658,-1.656 v -6.439 c 0,-0.918 0.743,-1.657 1.658,-1.657 h 6.434 c 0.915,0 1.658,0.739 1.658,1.654 v 4.773 c 0,2.465 1.993,4.457 4.458,4.457 0.46,0 1.542,-0.248 2.111,-0.248 3.131,0 5.749,2.566 5.749,5.786 0,1.57 -0.637,2.978 -1.644,4 m -12.328,3.053 c 0.911,0 1.654,0.739 1.654,1.654 v 6.44 c 0,0.915 -0.743,1.657 -1.654,1.657 h -6.438 c -0.915,0 -1.658,-0.742 -1.658,-1.656 V 6.209 c 0,-1.53 -1.166,-2.848 -1.672,-3.371 -0.498,-0.53 -1.861,-1.628 -4.027,-1.635 h -5.938 v -9.79 h 9.787 v 5.941 c 0.005,2.169 1.105,3.525 1.632,4.028 0.525,0.503 1.842,1.671 3.376,1.671 z"
             style="fill:#e30520;fill-opacity:1;fill-rule:nonzero;stroke:none"
             id="path275"
             inkscape:connector-curvature="0" />
        </g>
        <path
           d="m 297.625,474.369 h -4.263 v -11.883 h 4.263 z m -61.346,-11.882 h 4.265 v 11.883 h -4.265 z m -13.431,4.965 c -0.957,0.885 -7.426,7.112 -7.426,7.112 l -3.167,-2.881 10.593,-9.516 10.584,9.511 -3.16,2.891 c 0,0 -6.468,-6.232 -7.424,-7.117 m 37.547,-4.965 h 4.144 v 11.882 H 260.4 v -7.388 c 0,0 -3.083,2.28 -7.62,4.63 -3.965,2.057 -7.457,2.734 -7.457,2.734 v -11.858 h 4.13 l -0.002,6.336 c 0.991,-0.401 2.061,-0.837 3.324,-1.496 4.535,-2.348 7.62,-4.84 7.62,-4.84 m 28.341,0.701 v 3.543 c 0,0 -4.128,-0.809 -9.785,-0.809 -2.748,0 -4.562,0.32 -5.541,0.421 -0.006,0.852 0,3.262 0,4.124 1.093,0.109 2.939,0.428 5.581,0.428 5.509,-0.024 9.745,-0.842 9.745,-0.842 v 3.569 c 0,0 -3.777,0.941 -9.745,0.941 -6.005,0 -9.742,-0.944 -9.742,-0.944 v -10.427 c 0,0 3.799,-0.939 9.742,-0.939 5.906,0 9.745,0.935 9.745,0.935"
           style="fill:#ffffff;fill-opacity:1;fill-rule:nonzero;stroke:none"
           id="path277"
           inkscape:connector-curvature="0" />
        <g
           id="g279"
           transform="translate(339.3116,473.156)">
          <path
             d="m 0,0 c -1.014,1.029 -2.432,1.649 -4.006,1.649 -3.216,0 -5.781,-2.618 -5.781,-5.749 0,-0.57 0.247,-1.655 0.247,-2.115 0,-2.462 -1.993,-4.455 -4.455,-4.455 h -4.771 c -0.915,0 -1.658,-0.74 -1.658,-1.656 v -6.439 c 0,-0.918 0.743,-1.657 1.658,-1.657 h 6.434 c 0.915,0 1.658,0.739 1.658,1.654 v 4.773 c 0,2.465 1.993,4.457 4.458,4.457 0.46,0 1.542,-0.248 2.111,-0.248 3.131,0 5.749,2.566 5.749,5.786 0,1.57 -0.637,2.978 -1.644,4 m -12.328,3.053 c 0.911,0 1.654,0.739 1.654,1.654 v 6.44 c 0,0.915 -0.743,1.657 -1.654,1.657 h -6.438 c -0.915,0 -1.658,-0.742 -1.658,-1.656 V 6.209 c 0,-1.53 -1.166,-2.848 -1.672,-3.371 -0.498,-0.53 -1.861,-1.628 -4.027,-1.635 h -5.938 v -9.79 h 9.787 v 5.941 c 0.005,2.169 1.105,3.525 1.632,4.028 0.525,0.503 1.842,1.671 3.376,1.671 z"
             style="fill:#ffffff;fill-opacity:1;fill-rule:nonzero;stroke:none"
             id="path281"
             inkscape:connector-curvature="0" />
        </g>
      </g>
    </g>
  </g>
</svg>
