<svg xmlns="http://www.w3.org/2000/svg" width="300" height="300" viewBox="0 0 40 50" fill="currentColor"><path d="M32.1993 10.5357C29.3591 7.69551 26.3252 9.53378 24.4265 11.4325L6.49014 29.3694C4.59144 31.2679 2.60411 34.1526 5.59336 37.1414C8.58262 40.1313 11.4673 38.1436 13.3656 36.2449L31.3023 18.3084C33.201 16.4095 35.0393 13.3755 32.1993 10.5357Z" fill="#6BC9E3"></path><path d="M15.0631 9.80108L18.8611 13.5989L22.727 9.73299C22.9894 9.46992 23.2559 9.22579 23.524 8.99555C23.1192 6.95303 21.9537 5.1065 18.8593 5.1065C15.759 5.1065 14.595 6.96028 14.1923 9.00723C14.4818 9.25761 14.7706 9.5086 15.0631 9.80108Z" fill="#6BC9E3"></path><path d="M22.7248 38.0122L18.8613 34.1486L15.0653 37.9442C14.7771 38.2326 14.4902 38.4961 14.2046 38.7436C14.6399 40.8258 15.8718 42.733 18.8597 42.733C21.8554 42.733 23.0857 40.8156 23.5182 38.7267C23.2525 38.4981 22.9866 38.2739 22.7248 38.0122Z" fill="#6BC9E3"></path><path d="M13.4522 19.0079H6.13018C3.44549 19.0079 0 19.8537 0 23.8699C0 26.8666 1.91804 28.0971 4.00729 28.5294C4.25465 28.2438 13.4522 19.0079 13.4522 19.0079Z" fill="#6BC9E3"></path><path d="M33.7268 19.2029C33.4951 19.4724 24.2782 28.7317 24.2782 28.7317H31.4963C34.1812 28.7317 37.6265 28.0973 37.6265 23.8699C37.6265 20.7701 35.7733 19.6054 33.7268 19.2029Z" fill="#6BC9E3"></path><path d="M15.8513 16.6044L17.1594 15.2963L13.3638 11.5002C11.4649 9.60166 8.5806 7.61413 5.59135 10.6034C3.39937 12.7954 3.88623 14.9287 5.04889 16.6606C5.40301 16.6345 15.8513 16.6044 15.8513 16.6044Z" fill="#6BC9E3"></path><path d="M21.8697 31.1351L20.5582 32.4467L24.4244 36.3126C26.3231 38.2115 29.3571 40.0493 32.1969 37.2095C34.316 35.0903 33.8297 32.8644 32.6582 31.0814C32.2811 31.1086 21.8697 31.1351 21.8697 31.1351Z" fill="#6BC9E3"></path><path d="M112.925 11.4035C112.277 11.4035 111.142 11.5656 109.898 12.1061C108.277 12.8087 107.413 13.3491 106.98 14.0515C105.359 12.1603 103.251 11.5656 100.873 11.5656C93.9012 11.5656 88.9292 17.4565 88.9292 25.8333C88.9292 32.8592 92.7123 38.0475 98.0628 38.0475C99.6839 38.0475 101.143 37.3987 102.873 35.7778C104.224 34.5345 104.873 33.7242 104.873 32.9674C104.873 32.4267 104.494 32.0484 103.954 32.0484C103.197 32.0484 102.386 32.6968 101.359 32.6968C99.1434 32.6968 97.6301 29.2918 97.6301 24.2657C97.6301 19.2398 99.6297 15.835 102.656 15.835C104.656 15.835 106.169 17.3479 106.169 19.9424V35.7236C106.169 37.4527 107.79 37.9391 110.763 37.9391C113.682 37.9391 114.816 37.3987 114.816 35.7236V13.1332C114.817 12.0519 114.114 11.4035 112.925 11.4035Z" fill="#6BC9E3"></path></svg>
