<svg id="Calque_1" data-name="Calque 1" xmlns="http://www.w3.org/2000/svg" viewBox="0 0 848 220.08">
  <title>logo</title>
  <path d="M375.55,81.74V150.8s25,6.24,64.2,6.24c38.9,0,64.2-6.21,64.2-6.21V127.36s-27.19,5.37-64.46,5.37c-18.1,0-30.07-2.13-36.52-2.78,0-5.66,0-21.63,0-27.33,7.22-.72,19.35-2.81,36.79-2.81a380.5,380.5,0,0,1,64.2,5.56V81.72s-24.91-6.24-64.2-6.24C400.17,75.49,375.55,81.74,375.55,81.74Z" style="fill: #004289"/>
  <rect x="534.41" y="76.78" width="28.13" height="78.71" style="fill: #004289"/>
  <rect x="158.29" y="76.78" width="28.12" height="78.71" style="fill: #004289"/>
  <path d="M317.2,155.49A327.24,327.24,0,0,0,267,123.4c-8.34-4.35-15.37-7.23-21.91-9.9v42H217.88V76.92A202.81,202.81,0,0,1,267,95a409.52,409.52,0,0,1,50.19,30.68V76.78h27.29v78.71Z" style="fill: #004289"/>
  <path d="M139.53,94.6l-69.73,63L0,94.56l20.86-19.1S63.5,116.72,69.8,122.6c6.29-5.88,48.93-47.16,48.93-47.16Z" style="fill: #004289"/>
  <path d="M626,76.83h39.12A36.8,36.8,0,0,0,691.63,66c3.31-3.47,11-12.2,11-22.35,0,0,0-32.7,0-32.7A10.93,10.93,0,0,1,713.51,0h42.42a10.92,10.92,0,0,1,10.9,11V53.62a10.93,10.93,0,0,1-10.9,11H723.39c-10.09,0-18.74,7.73-22.19,11.07a37.16,37.16,0,0,0-10.76,26.69v39.32H626V76.83" style="fill: #e40520"/>
  <path d="M848,111.31a37.68,37.68,0,0,0-10.84-26.52,36.77,36.77,0,0,0-26.39-10.9A38.18,38.18,0,0,0,772.68,112c0,3.78,1.63,11,1.63,14a29.44,29.44,0,0,1-29.36,29.52H713.5a10.93,10.93,0,0,0-10.87,11v42.66a10.93,10.93,0,0,0,10.87,11h42.42a10.92,10.92,0,0,0,10.9-11V177.49A29.45,29.45,0,0,1,796.21,148c3,0,10.17,1.65,13.93,1.65A38.19,38.19,0,0,0,848,111.31Z" style="fill: #e40520"/>
  <g>
    <path d="M395.61,218.23v-33.7h20.32v4.16H403.32v10.19h11.22V203H403.32v11.07h12.61v4.16Z" style="fill: #004289"/>
    <path d="M447.6,218.23l-15.83-21.75a41,41,0,0,1-2.43-3.77h-.12a35.52,35.52,0,0,1,.24,3.92v21.6H423v-33.7h7.28L445.17,205a38.11,38.11,0,0,1,2.25,3.43h.12a35.78,35.78,0,0,1-.18-3.58V184.53h6.43v33.7Z" style="fill: #004289"/>
    <path d="M462.39,218.23v-33.7h20.32v4.16H470.1v10.19h11.22V203H470.1v11.07h12.61v4.16Z" style="fill: #004289"/>
    <path d="M509.16,194.57c0,4.51-2.91,7.11-8.86,7.11a12.94,12.94,0,0,1-2.85-.25V188.21a11,11,0,0,1,3.82-.59C506.92,187.62,509.16,189.87,509.16,194.57Zm8.8,23.66-12.44-14.94v-.1c6.62-.34,11.16-3.82,11.16-8.92,0-6.32-5-10.23-15.41-10.23a31.08,31.08,0,0,0-11.4,1.91v32.28h7.58V203h.12l11.83,15.28Z" style="fill: #004289"/>
    <path d="M540.63,218.72c-11.16,0-18.19-6.22-18.19-17.54,0-10.73,7.58-17.14,18.38-17.14,4.73,0,8.07.73,10.43,1.86l-2.3,3.82a17,17,0,0,0-7.22-1.27c-7.22,0-11.46,4-11.46,13,0,8.52,4.25,12.93,10.07,12.93a10.67,10.67,0,0,0,4.18-.63V202.7h-6v-3.82h13.28v17.93C549.18,218,546.15,218.72,540.63,218.72Z" style="fill: #004289"/>
    <path d="M560.24,218.23v-33.7H568v33.7Z" style="fill: #004289"/>
    <path d="M576.73,218.23v-33.7h20.33v4.16H584.44v10.19h11.22V203H584.44v11.07h12.62v4.16Z" style="fill: #004289"/>
    <path d="M612.34,218.72c-5,0-8.07-.73-10.31-1.91l1.88-4.36a14.86,14.86,0,0,0,7,1.57c4.12,0,6.67-2.06,6.67-5.19,0-2.55-1.82-4.11-6.49-5.68-6.8-2.3-8.62-5.93-8.62-9.21,0-5.34,4.8-9.89,12.5-9.89,4.19,0,7.28.83,9.16,1.91l-1.7,3.82a14.61,14.61,0,0,0-6.43-1.52c-3.82,0-6,1.91-6,4.9s2.66,4.31,6.3,5.54c8.2,2.79,9.41,6.51,9.41,9.75C625.69,214.41,620.1,218.72,612.34,218.72Z" style="fill: #004289"/>
  </g>
</svg>
