<?xml version="1.0" encoding="utf-8"?>
<!-- Generator: Adobe Illustrator 18.1.1, SVG Export Plug-In . SVG Version: 6.00 Build 0)  -->
<svg version="1.1" id="Livello_1" xmlns="http://www.w3.org/2000/svg" xmlns:xlink="http://www.w3.org/1999/xlink" x="0px" y="0px"
	 viewBox="0 0 5 23" enable-background="new 0 0 5 23" xml:space="preserve">
<path fill="#788F9B" d="M5,11.4C5,12.8,3.9,14,2.5,14S0,12.8,0,11.4s1.1-2.5,2.5-2.5S5,10,5,11.4z M2.5,5.1C3.9,5.1,5,3.9,5,2.5
	C5,1.1,3.9,0,2.5,0S0,1.1,0,2.5C0,3.9,1.1,5.1,2.5,5.1z M2.5,17.8c-1.4,0-2.5,1.1-2.5,2.5c0,1.4,1.1,2.5,2.5,2.5S5,21.7,5,20.3
	C5,18.9,3.9,17.8,2.5,17.8z"/>
</svg>
